<svg width="211" height="36" viewBox="0 0 211 36" fill="none" xmlns="http://www.w3.org/2000/svg">
<path d="M26.5443 19.6872C26.2013 18.0117 25.2118 13.9482 23.1207 10.3366C23.1306 10.3004 23.1438 10.2674 23.1537 10.2344C23.3087 9.6638 23.3747 9.0866 23.3483 8.5292C23.3252 8.02786 23.2263 7.5826 23.0812 7.2C22.9459 6.85039 22.7645 6.54695 22.5534 6.29958C22.3555 6.0654 22.1247 5.87411 21.8707 5.73558C21.6266 5.60035 21.3529 5.508 21.056 5.47172C20.7625 5.43544 20.4656 5.45193 20.1721 5.51789C19.9016 5.57726 19.6279 5.68281 19.3607 5.82793C19.2849 5.76856 19.2123 5.7059 19.1365 5.64653C17.0553 3.92154 14.8157 2.42084 13.3183 2.42084C11.7352 2.42084 9.4264 4.03038 7.3617 5.80154C7.11103 5.67291 6.85377 5.57396 6.5998 5.51789C6.30626 5.45193 6.00941 5.43544 5.71587 5.47172C5.42232 5.508 5.14857 5.60035 4.9012 5.73558C4.64724 5.87411 4.41636 6.0654 4.21846 6.29958C4.00737 6.54695 3.82597 6.85039 3.69074 7.2C3.54232 7.5793 3.44667 8.02457 3.42358 8.5292C3.3972 9.0866 3.46316 9.6638 3.61818 10.2344C3.62808 10.2707 3.64127 10.3037 3.65116 10.3366C1.55677 13.9482 0.567299 18.015 0.224281 19.6872C0.0758598 20.1456 0 20.6206 0 21.1054C0 24.5323 3.85895 27.4414 9.20212 28.4539C10.6171 28.7969 12.352 29.1565 13.4305 29.1565C14.5882 29.1565 16.4055 28.7607 17.7875 28.4111C23.0185 27.3589 26.7719 24.4861 26.7719 21.1054C26.7719 20.6206 26.6927 20.1456 26.5476 19.6872H26.5443Z" fill="white"/>
<path d="M45.3312 27.6032C43.7613 27.6032 42.3496 27.181 41.0996 26.3367C39.8495 25.4923 38.8634 24.3247 38.1377 22.8372C37.4121 21.3497 37.0493 19.6544 37.0493 17.7513C37.0493 15.8482 37.4055 14.087 38.1212 12.6093C38.8337 11.135 39.8231 9.97404 41.0831 9.12969C42.343 8.28534 43.7975 7.86316 45.4368 7.86316C46.3174 7.86316 47.1255 7.9819 47.8643 8.21937C48.6031 8.45684 49.243 8.80316 49.7905 9.25502C50.338 9.70688 50.8129 10.2181 51.2186 10.7887C51.6243 11.3593 51.9574 11.9794 52.218 12.6456L50.8624 12.5731V8.25235H57.3962V27.28H50.7206V22.6393L52.185 22.7119C51.9706 23.4012 51.654 24.0444 51.2384 24.6381C50.8228 25.2317 50.3149 25.7496 49.7212 26.1915C49.1275 26.6335 48.4646 26.9765 47.7389 27.2272C47.0133 27.4779 46.2086 27.6032 45.3279 27.6032H45.3312ZM47.2244 22.1413C47.9863 22.1413 48.6394 21.9698 49.1869 21.6235C49.7344 21.2771 50.1566 20.7725 50.4534 20.1063C50.7502 19.44 50.8987 18.655 50.8987 17.7513C50.8987 16.8476 50.7502 16.0263 50.4534 15.3601C50.1566 14.6938 49.7344 14.1892 49.1869 13.8429C48.6394 13.4966 47.9863 13.3251 47.2244 13.3251C46.4625 13.3251 45.8128 13.4966 45.2785 13.8429C44.7441 14.1892 44.3319 14.6938 44.0482 15.3601C43.7613 16.0263 43.6194 16.8245 43.6194 17.7513C43.6194 18.6781 43.7613 19.44 44.0482 20.1063C44.3352 20.7725 44.7441 21.2771 45.2785 21.6235C45.8128 21.9698 46.4625 22.1413 47.2244 22.1413Z" fill="#59209F"/>
<path d="M69.9988 27.6361C68.1188 27.6361 66.4333 27.2073 64.9491 26.3498C63.4616 25.4923 62.2907 24.3214 61.4332 22.8339C60.5757 21.3463 60.1469 19.651 60.1469 17.748C60.1469 15.8449 60.5757 14.1496 61.4332 12.6621C62.2907 11.1745 63.4616 10.0037 64.9491 9.14612C66.4366 8.28858 68.1188 7.8598 69.9988 7.8598C71.7138 7.8598 73.2871 8.13356 74.7284 8.68107C76.1665 9.22858 77.3176 10.0136 78.1718 11.036L74.5668 15.3204C74.3063 14.9873 73.9731 14.6839 73.5675 14.4101C73.1618 14.1364 72.7165 13.922 72.2284 13.767C71.7402 13.612 71.1993 13.5361 70.6056 13.5361C69.8207 13.5361 69.1313 13.7142 68.5343 14.0704C67.9406 14.4266 67.4822 14.9214 67.159 15.5513C66.839 16.1813 66.6774 16.9036 66.6774 17.7117C66.6774 18.5197 66.8324 19.2355 67.1425 19.8522C67.4525 20.4723 67.911 20.9703 68.5178 21.3529C69.1247 21.7355 69.8207 21.9235 70.6056 21.9235C71.1993 21.9235 71.7402 21.851 72.2284 21.7092C72.7165 21.5673 73.1552 21.3628 73.5477 21.1023C73.9402 20.8417 74.2799 20.5317 74.5635 20.1755L78.1685 24.4962C77.2879 25.4956 76.1269 26.2706 74.6889 26.8181C73.2475 27.3657 71.6842 27.6394 69.9955 27.6394L69.9988 27.6361Z" fill="#59209F"/>
<path d="M88.7361 27.6361C86.8561 27.6361 85.1707 27.2073 83.6865 26.3498C82.199 25.4923 81.0281 24.3214 80.1706 22.8339C79.313 21.3463 78.8842 19.651 78.8842 17.748C78.8842 15.8449 79.313 14.1496 80.1706 12.6621C81.0281 11.1745 82.199 10.0037 83.6865 9.14612C85.174 8.28858 86.8561 7.8598 88.7361 7.8598C90.4512 7.8598 92.0245 8.13356 93.4658 8.68107C94.9039 9.22858 96.0549 10.0136 96.9092 11.036L93.3042 15.3204C93.0436 14.9873 92.7105 14.6839 92.3048 14.4101C91.8991 14.1364 91.4539 13.922 90.9657 13.767C90.4776 13.612 89.9367 13.5361 89.343 13.5361C88.558 13.5361 87.8687 13.7142 87.2717 14.0704C86.678 14.4266 86.2196 14.9214 85.8963 15.5513C85.5764 16.1813 85.4148 16.9036 85.4148 17.7117C85.4148 18.5197 85.5698 19.2355 85.8798 19.8522C86.1899 20.4723 86.6483 20.9703 87.2552 21.3529C87.8621 21.7355 88.558 21.9235 89.343 21.9235C89.9367 21.9235 90.4776 21.851 90.9657 21.7092C91.4539 21.5673 91.8925 21.3628 92.285 21.1023C92.6775 20.8417 93.0173 20.5317 93.3009 20.1755L96.9059 24.4962C96.0253 25.4956 94.8643 26.2706 93.4262 26.8181C91.9849 27.3657 90.4215 27.6394 88.7328 27.6394L88.7361 27.6361Z" fill="#59209F"/>
<path d="M111.085 27.6724C110.205 27.6724 109.37 27.5603 108.585 27.3327C107.8 27.1084 107.098 26.7984 106.478 26.4059C105.857 26.0134 105.346 25.555 104.944 25.0305C104.538 24.5061 104.278 23.9487 104.159 23.3517L105.514 22.9955L105.049 27.2437H98.9806V0.864258H105.656V12.86L104.228 12.3949C104.37 11.7518 104.65 11.1581 105.066 10.6106C105.481 10.0631 105.989 9.58153 106.583 9.16595C107.177 8.75038 107.843 8.43045 108.582 8.20287C109.321 7.97858 110.092 7.86315 110.904 7.86315C112.546 7.86315 113.991 8.28532 115.241 9.12967C116.491 9.97403 117.477 11.1449 118.203 12.6456C118.928 14.1463 119.291 15.8581 119.291 17.7843C119.291 19.7105 118.935 21.419 118.219 22.9065C117.507 24.394 116.531 25.5616 115.294 26.4059C114.057 27.2503 112.652 27.6724 111.082 27.6724H111.085ZM109.159 22.2105C109.921 22.2105 110.571 22.0258 111.105 21.6564C111.639 21.287 112.058 20.7758 112.355 20.1227C112.652 19.4697 112.8 18.688 112.8 17.7843C112.8 16.8806 112.658 16.0593 112.371 15.3931C112.085 14.7268 111.669 14.2222 111.121 13.8759C110.574 13.5328 109.921 13.358 109.159 13.358C108.397 13.358 107.744 13.5328 107.197 13.8759C106.649 14.2222 106.227 14.7268 105.93 15.3931C105.633 16.0593 105.485 16.8575 105.485 17.7843C105.485 18.7111 105.633 19.4697 105.93 20.1227C106.227 20.7791 106.649 21.2903 107.197 21.6564C107.744 22.0258 108.397 22.2105 109.159 22.2105Z" fill="#F99B28"/>
<path d="M128.467 27.6726C127.039 27.6726 125.825 27.3692 124.826 26.7623C123.826 26.1554 123.064 25.2814 122.54 24.1402C122.015 22.999 121.755 21.617 121.755 20.0009V8.2525H128.394V19.3181C128.394 19.9382 128.5 20.4593 128.714 20.8881C128.929 21.3169 129.225 21.6434 129.608 21.871C129.987 22.0986 130.452 22.2107 131 22.2107C131.429 22.2107 131.815 22.1513 132.161 22.0326C132.504 21.9139 132.797 21.7292 133.035 21.4785C133.272 21.2278 133.464 20.9442 133.605 20.6209C133.747 20.301 133.82 19.9481 133.82 19.5688V8.2525H140.459V27.2801H134.318L133.962 23.4245L135.212 22.9957C134.948 23.8763 134.486 24.6745 133.82 25.3869C133.154 26.0993 132.355 26.66 131.429 27.0657C130.502 27.4714 129.512 27.6726 128.467 27.6726Z" fill="#F99B28"/>
<path d="M151.564 27.6724C149.968 27.6724 148.547 27.2503 147.3 26.4059C146.05 25.5616 145.07 24.394 144.355 22.9065C143.642 21.419 143.283 19.7105 143.283 17.7843C143.283 15.8581 143.645 14.1496 144.371 12.6621C145.097 11.1746 146.089 10.0037 147.353 9.14617C148.613 8.28862 150.054 7.85985 151.673 7.85985C152.508 7.85985 153.303 7.97858 154.065 8.21606C154.826 8.45353 155.509 8.78666 156.116 9.21543C156.723 9.6442 157.234 10.1422 157.65 10.7161C158.065 11.2867 158.333 11.8936 158.455 12.5368L156.921 12.9655V0.864258H163.597V27.2799H157.564L157.099 23.0318L158.418 23.2825C158.323 23.9025 158.072 24.4731 157.67 24.9943C157.264 25.5187 156.759 25.9837 156.152 26.3861C155.545 26.7918 154.843 27.1051 154.045 27.3327C153.247 27.5603 152.422 27.6724 151.564 27.6724ZM153.458 22.2468C154.22 22.2468 154.873 22.0621 155.42 21.6927C155.968 21.3233 156.383 20.8121 156.67 20.159C156.957 19.506 157.099 18.7144 157.099 17.7843C157.099 16.8542 156.957 16.0527 156.67 15.3733C156.383 14.6938 155.968 14.1826 155.42 13.8396C154.873 13.4933 154.22 13.3218 153.458 13.3218C152.696 13.3218 152.043 13.4933 151.495 13.8396C150.948 14.1859 150.532 14.6971 150.245 15.3733C149.958 16.0494 149.816 16.8542 149.816 17.7843C149.816 18.7144 149.958 19.5027 150.245 20.159C150.532 20.8154 150.948 21.3266 151.495 21.6927C152.043 22.0621 152.696 22.2468 153.458 22.2468Z" fill="#F99B28"/>
<path d="M174.339 27.6724C172.743 27.6724 171.321 27.2503 170.074 26.4059C168.824 25.5616 167.845 24.394 167.129 22.9065C166.416 21.419 166.057 19.7105 166.057 17.7843C166.057 15.8581 166.42 14.1496 167.145 12.6621C167.871 11.1746 168.864 10.0037 170.127 9.14617C171.387 8.28862 172.828 7.85985 174.448 7.85985C175.282 7.85985 176.077 7.97858 176.839 8.21606C177.601 8.45353 178.284 8.78666 178.89 9.21543C179.497 9.6442 180.009 10.1422 180.424 10.7161C180.84 11.2867 181.107 11.8936 181.229 12.5368L179.695 12.9655V0.864258H186.371V27.2799H180.338L179.873 23.0318L181.193 23.2825C181.097 23.9025 180.846 24.4731 180.444 24.9943C180.038 25.5187 179.534 25.9837 178.927 26.3861C178.32 26.7918 177.617 27.1051 176.819 27.3327C176.021 27.5603 175.196 27.6724 174.339 27.6724ZM176.232 22.2468C176.994 22.2468 177.647 22.0621 178.195 21.6927C178.742 21.3233 179.158 20.8121 179.445 20.159C179.732 19.506 179.873 18.7144 179.873 17.7843C179.873 16.8542 179.732 16.0527 179.445 15.3733C179.158 14.6938 178.742 14.1826 178.195 13.8396C177.647 13.4933 176.994 13.3218 176.232 13.3218C175.47 13.3218 174.817 13.4933 174.27 13.8396C173.722 14.1859 173.307 14.6971 173.02 15.3733C172.733 16.0494 172.591 16.8542 172.591 17.7843C172.591 18.7144 172.733 19.5027 173.02 20.159C173.307 20.8154 173.722 21.3266 174.27 21.6927C174.817 22.0621 175.47 22.2468 176.232 22.2468Z" fill="#F99B28"/>
<path d="M192.258 35.4893L196.826 24.7074L196.899 27.6329L187.868 8.24909H195.293L198.469 15.8153C198.73 16.409 198.964 16.9993 199.165 17.5831C199.366 18.1669 199.515 18.721 199.61 19.2422L198.861 19.8128C198.957 19.5027 199.099 19.0772 199.29 18.5264C199.482 17.9789 199.696 17.349 199.933 16.6332L202.826 8.24579H210.287L202.041 27.2734L198.72 35.4827H192.258V35.4893Z" fill="#F99B28"/>
<path d="M13.2029 15.9307C9.93099 15.9307 7.01534 16.7684 5.12874 18.0745C5.05947 18.2823 5.02319 18.4044 5.02319 18.4044C5.02319 18.4044 6.57997 19.8259 7.31548 20.2613C8.05099 20.6933 8.70074 21.0331 9.89141 20.3866C10.7226 19.9314 11.4746 19.3114 12.3618 19.0541C12.6191 19.0376 12.8994 19.0079 13.2029 18.9651C13.2688 18.9552 13.3348 18.9486 13.4008 18.9453C13.4667 18.9519 13.5327 18.9552 13.5986 18.9651C13.8988 19.0079 14.1824 19.0376 14.4397 19.0541C15.3302 19.3114 16.0789 19.9314 16.9101 20.3866C18.0975 21.0364 18.7505 20.6966 19.486 20.2613C20.1655 19.8622 21.5474 18.6154 21.7519 18.4307C19.9016 16.9267 16.765 15.934 13.2062 15.934L13.2029 15.9307Z" fill="#F99B28"/>
<path d="M26.5443 19.6872C26.2013 18.0117 25.2118 13.9482 23.1207 10.3366C23.1306 10.3004 23.1438 10.2674 23.1537 10.2344C23.3087 9.6638 23.3747 9.0866 23.3483 8.5292C23.3252 8.02786 23.2263 7.5826 23.0812 7.2C22.9459 6.85039 22.7645 6.54695 22.5534 6.29958C22.3555 6.0654 22.1247 5.87411 21.8707 5.73558C21.6266 5.60035 21.3529 5.508 21.056 5.47172C20.7625 5.43544 20.4656 5.45193 20.1721 5.51789C19.9016 5.57726 19.6279 5.68281 19.3607 5.82793C19.2849 5.76856 19.2123 5.7059 19.1365 5.64653C17.0553 3.92154 14.8157 2.42084 13.3183 2.42084C11.7352 2.42084 9.4264 4.03038 7.3617 5.80154C7.11103 5.67291 6.85377 5.57396 6.5998 5.51789C6.30626 5.45193 6.00941 5.43544 5.71587 5.47172C5.42232 5.508 5.14857 5.60035 4.9012 5.73558C4.64724 5.87411 4.41636 6.0654 4.21846 6.29958C4.00737 6.54695 3.82597 6.85039 3.69074 7.2C3.54232 7.5793 3.44667 8.02457 3.42358 8.5292C3.3972 9.0866 3.46316 9.6638 3.61818 10.2344C3.62808 10.2707 3.64127 10.3037 3.65116 10.3366C1.55677 13.9482 0.567299 18.015 0.224281 19.6872C0.0758598 20.1456 0 20.6206 0 21.1054C0 24.5323 3.85895 27.4414 9.20212 28.4539C10.6171 28.7969 12.352 29.1565 13.4305 29.1565C14.5882 29.1565 16.4055 28.7607 17.7875 28.4111C23.0185 27.3589 26.7719 24.4861 26.7719 21.1054C26.7719 20.6206 26.6927 20.1456 26.5476 19.6872H26.5443ZM23.7177 20.5579C23.6781 23.025 18.1008 26.3661 18.1008 26.3661C18.1008 26.3661 15.5051 27.9988 13.4041 27.9988C11.3031 27.9988 8.70738 26.3661 8.70738 26.3661C8.70738 26.3661 3.13004 23.025 3.09046 20.5579C3.09046 20.5513 3.09046 20.5447 3.09046 20.5381C3.09046 18.6515 7.70142 16.6594 13.3909 16.6594C13.3975 16.6594 13.4008 16.6594 13.4074 16.6594C13.414 16.6594 13.4173 16.6594 13.4239 16.6594C19.1134 16.6594 23.7243 18.6515 23.7243 20.5381C23.7243 20.5447 23.7243 20.5513 23.7243 20.5579H23.7177Z" fill="#59209F"/>
<path d="M8.94478 18.9025C9.57322 18.9025 10.0827 18.393 10.0827 17.7646C10.0827 17.1362 9.57322 16.6267 8.94478 16.6267C8.31634 16.6267 7.80688 17.1362 7.80688 17.7646C7.80688 18.393 8.31634 18.9025 8.94478 18.9025Z" fill="#59209F"/>
<path d="M17.8237 18.9419C18.4522 18.9419 18.9616 18.4325 18.9616 17.804C18.9616 17.1756 18.4522 16.6661 17.8237 16.6661C17.1953 16.6661 16.6858 17.1756 16.6858 17.804C16.6858 18.4325 17.1953 18.9419 17.8237 18.9419Z" fill="#59209F"/>
<path d="M13.4403 22.105C13.4403 22.105 13.4205 22.1149 13.3843 22.1347C13.348 22.1149 13.3282 22.105 13.3282 22.105C13.3282 22.105 10.4323 22.105 10.5478 23.4375C10.6632 24.77 11.6956 26.0794 13.3051 26.1717C13.3051 26.1717 13.3084 26.1717 13.3117 26.1717C13.3348 26.1717 13.3612 26.1717 13.3843 26.1717C13.4073 26.1717 13.4337 26.1717 13.4568 26.1717C13.4568 26.1717 13.4601 26.1717 13.4634 26.1717C15.073 26.0794 16.1053 24.77 16.2208 23.4375C16.3362 22.105 13.4403 22.105 13.4403 22.105Z" fill="#59209F"/>
</svg>
